<?xml version="1.0" standalone="no"?>
<!DOCTYPE svg PUBLIC "-//W3C//DTD SVG 20010904//EN"
 "http://www.w3.org/TR/2001/REC-SVG-20010904/DTD/svg10.dtd">
<svg version="1.0" xmlns="http://www.w3.org/2000/svg"
 width="893.000000pt" height="549.000000pt" viewBox="0 0 893.000000 549.000000"
 preserveAspectRatio="xMidYMid meet">

<g transform="translate(0.000000,549.000000) scale(0.100000,-0.100000)"
fill="#000000" stroke="none">
<path d="M6637 5483 c-4 -3 -7 -478 -7 -1055 l0 -1048 -3310 0 -3310 0 0
-1155 0 -1155 3410 0 3410 0 0 1055 0 1055 1050 0 1050 0 0 1155 0 1155 -1143
0 c-629 0 -1147 -3 -1150 -7z m2103 -1148 l0 -955 -955 0 -955 0 0 955 0 955
955 0 955 0 0 -955z m-2110 -2110 l0 -955 -3210 0 -3210 0 0 955 0 955 3210 0
3210 0 0 -955z"/>
<path d="M1170 2225 l0 -475 100 0 100 0 0 195 0 195 140 0 140 0 0 85 0 85
-140 0 -140 0 0 110 0 110 173 2 172 3 3 83 3 82 -276 0 -275 0 0 -475z"/>
<path d="M1995 2668 c-7 -18 -101 -232 -208 -475 l-195 -443 112 0 111 0 84
195 85 195 118 0 118 0 0 -195 0 -195 275 0 275 0 0 85 0 85 -175 0 -175 0 0
110 0 110 163 2 162 3 3 83 3 82 -166 0 -165 0 0 110 0 110 173 2 172 3 3 83
3 82 -381 0 -381 0 -14 -32z m225 -243 l0 -115 -80 0 c-44 0 -80 2 -80 4 0 4
90 207 97 219 2 4 17 7 34 7 l29 0 0 -115z"/>
<path d="M2872 2618 l3 -83 128 -3 127 -3 0 -389 0 -390 105 0 105 0 0 390 0
390 130 0 130 0 0 85 0 85 -365 0 -366 0 3 -82z"/>
<path d="M3710 2225 l0 -475 105 0 105 0 0 195 0 195 185 0 185 0 0 -195 0
-195 105 0 105 0 0 475 0 475 -105 0 -105 0 0 -195 0 -195 -185 0 -185 0 0
195 0 195 -105 0 -105 0 0 -475z"/>
<path d="M4650 2225 l0 -475 91 0 91 0 -4 370 c-1 204 -2 367 -1 363 2 -5 52
-169 113 -367 60 -197 110 -360 110 -363 0 -2 43 -2 96 -1 l97 3 117 358 c65
197 119 360 121 362 2 2 3 -161 1 -361 l-3 -364 95 0 96 0 0 475 0 475 -140 0
-139 0 -118 -360 c-64 -198 -120 -355 -124 -348 -6 11 -186 589 -211 676 l-9
32 -139 0 -140 0 0 -475z"/>
<path d="M2790 351 l0 -221 26 0 c17 0 28 6 31 20 5 20 5 20 30 0 35 -28 102
-27 138 2 83 65 69 246 -21 284 -43 18 -95 12 -115 -13 -12 -14 -15 -5 -19 63
l-5 79 -32 3 -33 3 0 -220z m189 13 c25 -32 28 -101 6 -144 -13 -26 -21 -30
-55 -30 -56 0 -74 30 -68 111 3 45 10 65 23 75 31 23 71 17 94 -12z"/>
<path d="M3570 334 l0 -205 33 3 32 3 3 73 c3 69 4 72 28 72 51 0 113 23 141
52 24 25 28 38 28 83 0 90 -51 125 -185 125 l-80 0 0 -206z m175 121 c48 -47
21 -101 -57 -111 l-48 -7 0 72 0 71 40 0 c30 0 47 -7 65 -25z"/>
<path d="M3973 439 c-96 -29 -125 -184 -49 -267 31 -33 39 -36 97 -40 83 -5
119 9 119 44 0 23 -3 25 -22 20 -13 -3 -42 -9 -65 -12 -38 -6 -45 -3 -72 24
-54 54 -45 62 69 62 l100 0 0 43 c0 23 -6 53 -13 66 -27 54 -99 80 -164 60z
m95 -61 c5 -7 13 -23 16 -35 7 -22 5 -23 -63 -23 -39 0 -71 3 -71 6 0 11 23
49 34 56 18 12 73 9 84 -4z"/>
<path d="M4273 438 c-44 -9 -53 -26 -34 -57 6 -10 13 -11 29 -2 11 6 39 11 62
11 34 0 42 -4 50 -26 16 -41 13 -44 -42 -44 -96 0 -158 -53 -143 -120 14 -65
112 -94 168 -50 31 25 33 25 40 0 3 -12 14 -20 26 -20 20 0 21 5 21 126 0 71
-5 134 -11 146 -12 23 -68 49 -101 47 -13 -1 -42 -5 -65 -11z m113 -190 c-11
-59 -74 -88 -110 -52 -39 39 4 79 88 83 27 1 28 -1 22 -31z"/>
<path d="M4660 443 c-8 -3 -27 -17 -42 -31 l-28 -26 0 27 c0 23 -4 27 -30 27
l-31 0 3 -152 3 -153 33 -3 32 -3 0 101 c0 94 2 103 25 125 16 17 35 25 60 25
33 0 35 2 35 35 0 30 -3 35 -22 34 -13 0 -30 -3 -38 -6z"/>
<path d="M4810 439 c-43 -17 -60 -40 -60 -79 0 -44 14 -58 92 -95 63 -30 75
-47 51 -71 -17 -16 -64 -16 -120 2 -20 6 -23 3 -23 -24 0 -28 4 -32 36 -38
105 -20 184 17 184 86 0 44 -24 70 -95 100 -53 23 -66 35 -58 57 6 15 70 18
106 4 26 -10 37 1 37 34 0 27 -101 43 -150 24z"/>
<path d="M5103 439 c-94 -28 -123 -186 -49 -267 30 -32 39 -36 92 -39 103 -7
154 46 154 159 0 112 -90 180 -197 147z m106 -75 c15 -19 21 -41 21 -78 0 -69
-19 -96 -69 -96 -60 0 -91 51 -77 126 14 72 84 100 125 48z"/>
<path d="M5465 430 c-47 -24 -45 -24 -45 -5 0 10 -10 15 -30 15 l-31 0 3 -152
3 -153 31 -3 32 -3 4 111 c3 103 5 114 27 131 32 26 76 25 95 -3 12 -17 16
-49 16 -131 l0 -108 33 3 32 3 3 107 c3 130 -10 171 -62 193 -47 20 -64 19
-111 -5z"/>
<path d="M3090 436 c0 -4 25 -68 56 -144 30 -75 56 -147 56 -159 1 -41 -29
-73 -67 -73 -32 0 -35 -2 -35 -30 0 -28 3 -30 35 -30 48 0 91 24 110 59 8 16
41 101 74 188 33 87 63 166 66 176 7 16 3 18 -30 15 l-38 -3 -38 -110 c-21
-61 -40 -103 -43 -95 -4 8 -21 58 -40 110 -34 95 -34 95 -70 98 -20 2 -36 1
-36 -2z"/>
</g>
</svg>
